<svg aria-hidden="true" style="width:0;height:0;position:absolute;overflow:hidden" xmlns="http://www.w3.org/2000/svg"><defs><symbol id="icon-github" viewBox="0 0 32 32"><path d="M19.448 18.708c.978-.028 1.542-.469 2.328-.69.64-.394 1.683-.385 2.327-.775.848-.188 1.362-.707 1.983-1.12.582-.453 1.132-.937 1.724-1.379.419-.732.962-1.336 1.12-2.329v-2.24c-.147-1.002-.44-1.859-.689-2.759a.801.801 0 0 1-.345-.517 4.004 4.004 0 0 1-.768-.765l-.007-.01c-.393-.154-.743-.351-.949-.69.195-.063.034-.484.087-.689.195-.064.034-.484.086-.69.247-.012-.075-.592.172-.604-.067-.356.133-.443.087-.776.156-.777.691-1.903.172-2.585-.111-.12-.375-.086-.604-.087a.602.602 0 0 0-.258.172c-.352.136-.528.449-.862.604-.227.26-.609.367-.776.69-.591.413-1.02.99-1.638 1.378-.396-.022-.535.211-.861.258-.368.005-.632.116-.949.174-.654.092-1.304.19-1.983.258-.296.038-.482-.034-.69-.086-.271-.042-.195.264-.517.173-.855-.112-2.094.071-3.189 0-.343-.089-.736-.127-1.121-.173-.442-.275-.837-.599-1.121-1.036-.718-.228-1.222-.672-1.982-.861-.441-.133-.469-.68-1.121-.603-.732.043-.809.742-1.034 1.293.021 1.328-.148 2.371 0 3.621-.031.285-.258.373-.431.518-.154.162-.234.398-.431.517-.258.374-.436.829-.69 1.206-.044.531-.211.939-.258 1.465v2.156c.172.292.093.638.172.948.009.037.155.21.172.259.046.128.057.258.087.344.084.253.162.416.171.604.005.086.077.055.087.086.163.478.237.967.431 1.379.077.164.234.339.345.518.145.233.185.3.345.43.028.024-.025.143 0 .174.299.365.735.556.948.947.723.34 1.348.777 2.413.776.064.194.483.033.69.086.125.133.44.077.688.087a4.72 4.72 0 0 0 1.466.172c-.197.235-.382.48-.604.69-.163.297-.539.381-.604.776-.272.245-.153.881-.431 1.121-.963.042-1.812-.027-2.413-.345-.832-.919-1.201-2.304-2.327-2.931-.861-.156-1.74.066-2.672.086-.364.296-.842.481-1.206.775-.439.223-.945.379-.949 1.035.882.658 1.618-.546 2.587-.603.566-.021.939.152 1.551.086.365.468.633 1.033.862 1.637.299.362.616.706.862 1.121.215-.015.268.133.344.259a5.474 5.474 0 0 0 2.155.603h1.293c.447.493.532 1.225.43 1.982-.018.133-.125.283-.172.432-.087.265-.123.491-.173.688-.077.306-.361.57-.345.862-.554.422-1.005.947-1.983.949-.592-.011-.583-.623-1.292-.518-.077-.324-.12-.683-.603-.603-.37.151-.413.882-.259 1.294.142.433.353.796.517 1.205.663.543 1.985.43 3.189.431.181-.164.41-.278.69-.345.61-.74 1.142-1.557 1.723-2.327.061-.398.284-.635.344-1.034.1-.28.445-.654.69-.517.169 1.268.053 2.819.086 4.223-.19.298-.266.712-.431 1.034-.482-.023-.798.122-1.035.346.085.49.368.781.689 1.033.9.096 1.398-.212 1.897-.517.239-.538.464-1.088.603-1.723.033-1.092-.018-2.394 0-3.706.115-.49.258-.95.259-1.553.183-.421.012-1.194.259-1.551.019.554.138 1.011.087 1.637.3 1.97 1.368 3.172 1.981 4.827.609.57 1.201 1.155 2.327 1.206.074-.128.278-.125.431-.172.202-.286.417-.56.345-1.12-.068-.019-.1-.073-.086-.174-.237-.509-.98-.514-1.38-.861-.238-.767-.71-1.301-1.034-1.984-.21-.651-.378-1.345-.691-1.895.025-.456-.222-.639-.171-1.12-.179-.022-.023-.379-.172-.431-.064-.295.35-.11.259-.431.361.356.498.937.689 1.464.561.848 1.078 1.738 1.895 2.328.678.761 1.567 1.308 2.759 1.552h1.12c.014-.159.293-.053.345-.172.058-.116.186-.161.345-.172.313-.319.521-.742.775-1.121.175-.4.33-1.297-.086-1.551-1.081-.018-1.179.947-2.069 1.121-1.616-.372-2.68-1.667-3.36-2.844-.051-.086-.034-.161-.087-.258-.475-.872-1.046-1.741-1.38-2.673-.255-.205-.409-.51-.602-.775a.78.78 0 0 1-.342-.34l-.002-.004c-.167.04-.44-.232-.258-.26zm5.086-13.015c.004.005.078-.162.086-.173.005-.006-.007-.086 0-.086.307-.054.008.383-.086.259zm-.518 2.155c-.176-.026-.169-.234-.345-.259.121-.454.389-.761.517-1.206.155-.012.182.104.346.086.142.773-.395.868-.518 1.379zm.604.862c-.005-.377.215-.532.345-.776.152.079.158.301.258.431.022.309-.259.316-.258.605-.176-.025-.169-.235-.345-.259zm2.585 3.362c.183.027-.012.376-.085.431.041.272-.124.337-.173.517-.256.204-.242.678-.69.69-.402-.006.101-.197.086-.345.079-.152.209-.252.259-.43.268-.22.421-.555.602-.862zm-.689-.777c-.004-.262.183-.335.259-.516.418.11-.062.76-.259.516zm.087-3.447c.217.314.628 1.009.258 1.378-.345-.087-.345-.517-.603-.689.04-.305.218-.472.345-.689zm-.259 4.051a4.769 4.769 0 0 0-.775 1.035c-.278-.229.073-.554.172-.69.175-.169.282-.407.43-.604.106.038.178.111.172.259zm-.259-4.655c-.002.172-.235.11-.172.345-.326-.047-.38-.367-.431-.69.353-.037.451.181.604.344zm-.344 2.07c.287.21.594.683.259 1.034-.273-.073-.246-.445-.518-.518.083-.175.177-.342.26-.516zm-.518 1.981c-.316-.177-.005-.449-.087-.861.192.067.216.3.345.43.042.271-.231.227-.258.43zm.173-9.395c.249.283-.167.635-.086 1.035-.368.023-.375-.315-.604-.432.193-.238.541-.32.69-.603zm-1.294.948h.259c.004.589.868.618.603 1.207-.445-.159-.642-.565-.949-.862-.036-.181.059-.228.087-.345zm-.517 1.122c.14-.025.149.08.259.086.028.401.489.372.517.775-.116.085-.172.231-.259.345-.437-.051-.438-.537-.776-.689.034-.225.258-.261.259-.517zm0 4.567c-.298.06-.309-.302-.172-.431.174.063.351.26.172.431zm-.774-4.741c.045-.133.089-.005.086.086-.154.025-.177-.081-.086-.086zm.085 1.465c.14-.024.148.082.258.086.002.372.43.317.431.69-.27.362-.435.829-.689 1.206-.387-.044-.593-.268-.863-.43.304-.501.557-1.051.862-1.552zm-.431 2.931h-1.121c.002-.258.225-.294.259-.518.221.011.302.159.431.259.22.011.443.017.431.258zm-.689-3.705c-.024-.14.081-.148.086-.26.334-.074.307.211.518.26-.125.363-.448.529-.518.948-.332.157-.258.718-.689.776-.339-.254-.038-.666.172-.863.096-.335.239-.623.432-.861zm-.69-.174c-.22.313-.448.679-.657 1.058l-.032.064c-.663-.272-.234-1.405.689-1.121zm-.603 2.501c.171 0 .11.234.345.171-.032.513-.366.726-.258 1.38-.077-.067-.195-.093-.346-.086.184-.323-.01-.49-.172-.69.089-.313.286-.52.431-.776zm-.604-.604c-.095.45-.443.647-.517 1.12-.175-.082-.341-.176-.517-.259.158-.445.487-.721.603-1.206.253.005.32.196.431.345zm-.344-1.81c.044.044-.063.109-.087.086-.044-.045.063-.11.087-.086zm-1.466 1.379c.185-.159.228-.463.431-.603-.025-.139.082-.148.087-.259.175.026.168.234.343.259-.058.314-.326.421-.431.69-.193.18-.21.537-.517.604-.285-.212-.02-.419.087-.69zm.689 2.327c-.038.194-.425.035-.604.086.031-.113.152-.135.172-.258.266-.065.166.237.431.172zM15.655 4.4h2.327c-.109.58-.601.778-.775 1.293-.258-.001-.293-.225-.518-.259.065-.367.403-.459.345-.948-.437-.035-.505.301-.776.43-.216.016-.269-.132-.344-.258-.081-.091-.318-.026-.259-.258zm1.897 3.792c-.148.198-.658.031-.949.087.209-.368.466-.684.605-1.121.128.044.218.128.345.172-.189.206-.237.664 0 .862zm-1.38-.862c-.252-.006-.319-.197-.431-.345.065-.338.337-.468.431-.775.2.058.231.285.43.344-.134.268-.255.549-.43.776zm-.431.949c-.234.053-.684-.109-.775.086-.258-.179.216-.35.171-.603.217.156.591.156.604.518zm-.774-3.103c.276.068.376.312.602.431-.071.387-.445.474-.517.863-.283-.034-.379-.253-.603-.345.044-.446.452-.526.518-.949zm-2.07-.776v.086c.709-.206.965.343 1.639.085.015.303-.292.285-.346.518-.227.06-.182.391-.43.43-.415-.131-.659-.432-.949-.69-.019-.162.098-.189.086-.344-.208-.035-.187.157-.431.085-.088-.289.269-.133.431-.171zm1.466 2.759c-.121.567-.658.721-.69 1.379-.25-.066-.496-.136-.604-.345.133-.528.526-.796.69-1.292.334-.047.355.22.604.259zm-2.069-1.552c.045.045-.063.111-.087.087-.043-.045.063-.11.087-.087zm.172.172c.189.185.48.268.603.517-.238.537-.666.885-.862 1.465-.352-.135-.648-.329-.948-.517.21-.681.948-.835 1.207-1.465zm-.862 3.535c-.288.056-.422.268-.688.345-.339-.064-.469-.336-.777-.432.11-.494.433-.774.604-1.206.502.014.641.393 1.034.517-.093.223-.21.423-.173.776zM9.708 8.106c-.159.151-.261.644-.517.431.142-.52.448-.872.69-1.293.114.031.136.152.258.172-.059.315-.326.421-.431.69zm.69-1.551c.044.045-.062.109-.087.086-.045-.044.063-.11.087-.086zm1.724-2.499c-.233.254-.478-.209-.69-.259.204-.226.449.236.69.259zm-.69.774c-.255.522-.727.825-.949 1.38-.175-.026-.168-.234-.344-.259.189-.615.557-1.052.862-1.551.227.059.182.392.431.43zm-1.897-.86V2.675c.409.224.894.37 1.293.605-.177.08-.239.277-.346.43.047.304-.305.212-.258.517-.28.236-.448.587-.603.949-.199-.232-.031-.832-.087-1.206zm-.258 1.981c.045-.133.09-.006.086.087-.154.024-.176-.081-.086-.087zm-.172.604c.397.156-.203.377-.171.69-.251.123-.196.553-.518.604.059-.602.454-.869.69-1.294zm-1.034 4.482c.219-.612.455-1.21.688-1.81h.259c-.166.504-.509 1.164-.259 1.81-.214.218-.446.416-.517.776-.222-.096-.17-.463-.172-.776zm1.895-.689c-.238.021-.196.32-.344.431-.035.208.156.187.086.43-.739.803-.959 3.002-.345 4.138.104-.009.053.125 0 0-.513-.435-.729-1.166-.949-1.897.128-.821.53-1.367.69-2.155.2-.058.231-.285.431-.345-.061-.319.147-.369.087-.689.1-.052.125-.607.344-.259.38-.012.024.245 0 .346zm4.397 6.551a132.66 132.66 0 0 1-2.587-.345c-.321-.282-.633-.574-.861-.949a3.213 3.213 0 0 1-.338-.581l-.008-.02c-.152-.136-.113-.463-.258-.605-.007-.84.078-1.588.172-2.327.125-.507.54-.724.776-1.122.366-.267.622-.643 1.035-.861.197-.063.44-.077.603-.173.154-.105.502-.015.603-.171 2.1.117 3.589-.376 5.689-.259.443.069.566-.183.949-.172h1.896c.139.023.149-.083.258-.087.263-.063.255.149.519.087.218.01.334.124.344.345.113.087.317.084.431.171.258.778.576 1.494.776 2.329v1.378a10.234 10.234 0 0 1-1.12 2.5c-.307.241-.8.292-1.121.517-.192.068-.336.182-.604.172-.031.229-.439.079-.517.259-2.322.195-4.329-.059-6.637-.086zm7.068-2.673c.692.059.786-.479 1.034-.862-.013-1.078.175-2.359-.862-2.414h-.172c-.363.355-.768.673-.949 1.209-.013.472-.009.928.087 1.292.324.222.325.767.862.776zm-8.793.258c.377.248.864.3 1.294.087.625-.632.336-2.319-.087-2.931-1.442-.432-1.751 1.79-1.207 2.844zm4.914.087c.015-.1.136-.093.259-.087.173-.203.228-.577.087-.861-.324-.31-.931-.137-.95.345.051.352.253.551.604.603zm.345.949c-.285.003-.43.145-.776.085-.564-.038-.596-.61-1.206-.602a.433.433 0 0 1-.259.257c.136.899.933 1.135 1.896 1.208.202-.028.323-.136.603-.087.42-.278 1.403-.691.862-1.378-.598-.054-.735.354-1.12.517z"/></symbol><symbol id="icon-arrow-right-min" viewBox="0 0 32 32"><path stroke-linejoin="round" stroke-linecap="round" stroke-width="2.666" d="M6.666 16h18.668M16 25.334 25.334 16 16 6.666"/></symbol><symbol id="icon-close-min" viewBox="0 0 32 32"><path stroke-width="2.133" d="m8.533 8.533 14.933 14.933m-14.933.001L23.466 8.534"/></symbol><symbol id="icon-Vector-min" viewBox="0 0 34 32"><path fill="#ff6b08" style="fill:var(--color1,#ff6b08)" d="m17.231 31.705-2.412-2.412C5.859 21.367.001 16.025.001 9.478.001 4.136 4.136.001 9.478.001c2.929 0 5.858 1.378 7.754 3.618 1.895-2.24 4.825-3.618 7.754-3.618 5.342 0 9.477 4.135 9.477 9.477 0 6.548-5.858 11.889-14.818 19.815l-2.412 2.412z"/></symbol><symbol id="icon-arrow-left-min" viewBox="0 0 32 32"><path stroke-linejoin="round" stroke-linecap="round" stroke-width="2.666" d="M25.334 16H6.666M16 25.334 6.666 16 16 6.666"/></symbol><symbol id="icon-film-min" viewBox="0 0 32 32"><path fill="none" stroke-linejoin="round" stroke-linecap="round" stroke-width="2.667" d="M26.427 2.667H5.574a2.907 2.907 0 0 0-2.907 2.907v20.853a2.907 2.907 0 0 0 2.907 2.907h20.853a2.907 2.907 0 0 0 2.907-2.907V5.574a2.907 2.907 0 0 0-2.907-2.907zm-17.094 0v26.667M22.667 2.667v26.667M2.667 16h26.667M2.667 9.333h6.667M2.667 22.667h6.667m13.333 0h6.667M22.667 9.333h6.667"/></symbol><symbol id="icon-search-2-min" viewBox="0 0 32 32"><path fill="none" stroke="#fff" style="stroke:var(--color2,#fff)" stroke-linejoin="round" stroke-linecap="round" stroke-width="2.667" d="M14.667 25.333c5.891 0 10.667-4.776 10.667-10.667S20.558 3.999 14.667 3.999v0C8.776 3.999 4 8.775 4 14.666s4.776 10.667 10.667 10.667v0zM28 28l-5.8-5.8"/></symbol><symbol id="icon-close" viewBox="0 0 32 32"><path stroke-width="2.133" d="m8.533 8.533 14.933 14.933M8.533 23.467 23.466 8.534"/></symbol><symbol id="icon-x" viewBox="0 0 32 32"><path d="M32 3.223 28.777 0 16 12.777 3.223 0 0 3.223 12.777 16 0 28.777 3.223 32 16 19.223 28.777 32 32 28.777 19.223 16 32 3.223z"/></symbol><symbol id="icon-play" viewBox="0 0 32 32"><path d="M16 0C7.163 0 0 7.163 0 16s7.163 16 16 16 16-7.163 16-16S24.837 0 16 0zm0 29C8.82 29 3 23.18 3 16S8.82 3 16 3s13 5.82 13 13-5.82 13-13 13zM12 9l12 7-12 7z"/></symbol></defs></svg>