<svg aria-hidden="true" style="position: absolute; width: 0; height: 0; overflow: hidden;" version="1.1" xmlns="http://www.w3.org/2000/svg" xmlns:xlink="http://www.w3.org/1999/xlink">
<defs>
<symbol id="icon-github" viewBox="0 0 32 32">
<path d="M19.448 18.708c0.978-0.028 1.542-0.469 2.328-0.69 0.64-0.394 1.683-0.385 2.327-0.775 0.848-0.188 1.362-0.707 1.983-1.12 0.582-0.453 1.132-0.937 1.724-1.379 0.419-0.732 0.962-1.336 1.12-2.329v-2.24c-0.147-1.002-0.44-1.859-0.689-2.759-0.174-0.113-0.291-0.283-0.345-0.517-0.295-0.224-0.551-0.48-0.768-0.765l-0.007-0.010c-0.393-0.154-0.743-0.351-0.949-0.69 0.195-0.063 0.034-0.484 0.087-0.689 0.195-0.064 0.034-0.484 0.086-0.69 0.247-0.012-0.075-0.592 0.172-0.604-0.067-0.356 0.133-0.443 0.087-0.776 0.156-0.777 0.691-1.903 0.172-2.585-0.111-0.12-0.375-0.086-0.604-0.087-0.102 0.041-0.195 0.092-0.258 0.172-0.352 0.136-0.528 0.449-0.862 0.604-0.227 0.26-0.609 0.367-0.776 0.69-0.591 0.413-1.020 0.99-1.638 1.378-0.396-0.022-0.535 0.211-0.861 0.258-0.368 0.005-0.632 0.116-0.949 0.174-0.654 0.092-1.304 0.19-1.983 0.258-0.296 0.038-0.482-0.034-0.69-0.086-0.271-0.042-0.195 0.264-0.517 0.173-0.855-0.112-2.094 0.071-3.189 0-0.343-0.089-0.736-0.127-1.121-0.173-0.442-0.275-0.837-0.599-1.121-1.036-0.718-0.228-1.222-0.672-1.982-0.861-0.441-0.133-0.469-0.68-1.121-0.603-0.732 0.043-0.809 0.742-1.034 1.293 0.021 1.328-0.148 2.371 0 3.621-0.031 0.285-0.258 0.373-0.431 0.518-0.154 0.162-0.234 0.398-0.431 0.517-0.258 0.374-0.436 0.829-0.69 1.206-0.044 0.531-0.211 0.939-0.258 1.465v2.156c0.172 0.292 0.093 0.638 0.172 0.948 0.009 0.037 0.155 0.21 0.172 0.259 0.046 0.128 0.057 0.258 0.087 0.344 0.084 0.253 0.162 0.416 0.171 0.604 0.005 0.086 0.077 0.055 0.087 0.086 0.163 0.478 0.237 0.967 0.431 1.379 0.077 0.164 0.234 0.339 0.345 0.518 0.145 0.233 0.185 0.3 0.345 0.43 0.028 0.024-0.025 0.143 0 0.174 0.299 0.365 0.735 0.556 0.948 0.947 0.723 0.34 1.348 0.777 2.413 0.776 0.064 0.194 0.483 0.033 0.69 0.086 0.125 0.133 0.44 0.077 0.688 0.087 0.423 0.123 0.904 0.188 1.466 0.172-0.197 0.235-0.382 0.48-0.604 0.69-0.163 0.297-0.539 0.381-0.604 0.776-0.272 0.245-0.153 0.881-0.431 1.121-0.963 0.042-1.812-0.027-2.413-0.345-0.832-0.919-1.201-2.304-2.327-2.931-0.861-0.156-1.74 0.066-2.672 0.086-0.364 0.296-0.842 0.481-1.206 0.775-0.439 0.223-0.945 0.379-0.949 1.035 0.882 0.658 1.618-0.546 2.587-0.603 0.566-0.021 0.939 0.152 1.551 0.086 0.365 0.468 0.633 1.033 0.862 1.637 0.299 0.362 0.616 0.706 0.862 1.121 0.215-0.015 0.268 0.133 0.344 0.259 0.611 0.308 1.294 0.544 2.155 0.603h1.293c0.447 0.493 0.532 1.225 0.43 1.982-0.018 0.133-0.125 0.283-0.172 0.432-0.087 0.265-0.123 0.491-0.173 0.688-0.077 0.306-0.361 0.57-0.345 0.862-0.554 0.422-1.005 0.947-1.983 0.949-0.592-0.011-0.583-0.623-1.292-0.518-0.077-0.324-0.12-0.683-0.603-0.603-0.37 0.151-0.413 0.882-0.259 1.294 0.142 0.433 0.353 0.796 0.517 1.205 0.663 0.543 1.985 0.43 3.189 0.431 0.181-0.164 0.41-0.278 0.69-0.345 0.61-0.74 1.142-1.557 1.723-2.327 0.061-0.398 0.284-0.635 0.344-1.034 0.1-0.28 0.445-0.654 0.69-0.517 0.169 1.268 0.053 2.819 0.086 4.223-0.19 0.298-0.266 0.712-0.431 1.034-0.482-0.023-0.798 0.122-1.035 0.346 0.085 0.49 0.368 0.781 0.689 1.033 0.9 0.096 1.398-0.212 1.897-0.517 0.239-0.538 0.464-1.088 0.603-1.723 0.033-1.092-0.018-2.394 0-3.706 0.115-0.49 0.258-0.95 0.259-1.553 0.183-0.421 0.012-1.194 0.259-1.551 0.019 0.554 0.138 1.011 0.087 1.637 0.3 1.97 1.368 3.172 1.981 4.827 0.609 0.57 1.201 1.155 2.327 1.206 0.074-0.128 0.278-0.125 0.431-0.172 0.202-0.286 0.417-0.56 0.345-1.12-0.068-0.019-0.1-0.073-0.086-0.174-0.237-0.509-0.98-0.514-1.38-0.861-0.238-0.767-0.71-1.301-1.034-1.984-0.21-0.651-0.378-1.345-0.691-1.895 0.025-0.456-0.222-0.639-0.171-1.12-0.179-0.022-0.023-0.379-0.172-0.431-0.064-0.295 0.35-0.11 0.259-0.431 0.361 0.356 0.498 0.937 0.689 1.464 0.561 0.848 1.078 1.738 1.895 2.328 0.678 0.761 1.567 1.308 2.759 1.552h1.12c0.014-0.159 0.293-0.053 0.345-0.172 0.058-0.116 0.186-0.161 0.345-0.172 0.313-0.319 0.521-0.742 0.775-1.121 0.175-0.4 0.33-1.297-0.086-1.551-1.081-0.018-1.179 0.947-2.069 1.121-1.616-0.372-2.68-1.667-3.36-2.844-0.051-0.086-0.034-0.161-0.087-0.258-0.475-0.872-1.046-1.741-1.38-2.673-0.255-0.205-0.409-0.51-0.602-0.775-0.149-0.076-0.268-0.195-0.342-0.34l-0.002-0.004c-0.167 0.040-0.44-0.232-0.258-0.26zM24.534 5.693c0.004 0.005 0.078-0.162 0.086-0.173 0.005-0.006-0.007-0.086 0-0.086 0.307-0.054 0.008 0.383-0.086 0.259zM24.016 7.848c-0.176-0.026-0.169-0.234-0.345-0.259 0.121-0.454 0.389-0.761 0.517-1.206 0.155-0.012 0.182 0.104 0.346 0.086 0.142 0.773-0.395 0.868-0.518 1.379zM24.62 8.71c-0.005-0.377 0.215-0.532 0.345-0.776 0.152 0.079 0.158 0.301 0.258 0.431 0.022 0.309-0.259 0.316-0.258 0.605-0.176-0.025-0.169-0.235-0.345-0.259zM27.205 12.072c0.183 0.027-0.012 0.376-0.085 0.431 0.041 0.272-0.124 0.337-0.173 0.517-0.256 0.204-0.242 0.678-0.69 0.69-0.402-0.006 0.101-0.197 0.086-0.345 0.079-0.152 0.209-0.252 0.259-0.43 0.268-0.22 0.421-0.555 0.602-0.862zM26.516 11.295c-0.004-0.262 0.183-0.335 0.259-0.516 0.418 0.11-0.062 0.76-0.259 0.516zM26.603 7.848c0.217 0.314 0.628 1.009 0.258 1.378-0.345-0.087-0.345-0.517-0.603-0.689 0.040-0.305 0.218-0.472 0.345-0.689zM26.344 11.899c-0.301 0.301-0.557 0.649-0.775 1.035-0.278-0.229 0.073-0.554 0.172-0.69 0.175-0.169 0.282-0.407 0.43-0.604 0.106 0.038 0.178 0.111 0.172 0.259zM26.085 7.244c-0.002 0.172-0.235 0.11-0.172 0.345-0.326-0.047-0.38-0.367-0.431-0.69 0.353-0.037 0.451 0.181 0.604 0.344zM25.741 9.314c0.287 0.21 0.594 0.683 0.259 1.034-0.273-0.073-0.246-0.445-0.518-0.518 0.083-0.175 0.177-0.342 0.26-0.516zM25.223 11.295c-0.316-0.177-0.005-0.449-0.087-0.861 0.192 0.067 0.216 0.3 0.345 0.43 0.042 0.271-0.231 0.227-0.258 0.43zM25.396 1.9c0.249 0.283-0.167 0.635-0.086 1.035-0.368 0.023-0.375-0.315-0.604-0.432 0.193-0.238 0.541-0.32 0.69-0.603zM24.102 2.848h0.259c0.004 0.589 0.868 0.618 0.603 1.207-0.445-0.159-0.642-0.565-0.949-0.862-0.036-0.181 0.059-0.228 0.087-0.345zM23.585 3.97c0.14-0.025 0.149 0.080 0.259 0.086 0.028 0.401 0.489 0.372 0.517 0.775-0.116 0.085-0.172 0.231-0.259 0.345-0.437-0.051-0.438-0.537-0.776-0.689 0.034-0.225 0.258-0.261 0.259-0.517zM23.585 8.537c-0.298 0.060-0.309-0.302-0.172-0.431 0.174 0.063 0.351 0.26 0.172 0.431zM22.811 3.796c0.045-0.133 0.089-0.005 0.086 0.086-0.154 0.025-0.177-0.081-0.086-0.086zM22.896 5.261c0.14-0.024 0.148 0.082 0.258 0.086 0.002 0.372 0.43 0.317 0.431 0.69-0.27 0.362-0.435 0.829-0.689 1.206-0.387-0.044-0.593-0.268-0.863-0.43 0.304-0.501 0.557-1.051 0.862-1.552zM22.465 8.192h-1.121c0.002-0.258 0.225-0.294 0.259-0.518 0.221 0.011 0.302 0.159 0.431 0.259 0.22 0.011 0.443 0.017 0.431 0.258zM21.776 4.487c-0.024-0.14 0.081-0.148 0.086-0.26 0.334-0.074 0.307 0.211 0.518 0.26-0.125 0.363-0.448 0.529-0.518 0.948-0.332 0.157-0.258 0.718-0.689 0.776-0.339-0.254-0.038-0.666 0.172-0.863 0.096-0.335 0.239-0.623 0.432-0.861zM21.086 4.313c-0.22 0.313-0.448 0.679-0.657 1.058l-0.032 0.064c-0.663-0.272-0.234-1.405 0.689-1.121zM20.483 6.814c0.171 0 0.11 0.234 0.345 0.171-0.032 0.513-0.366 0.726-0.258 1.38-0.077-0.067-0.195-0.093-0.346-0.086 0.184-0.323-0.010-0.49-0.172-0.69 0.089-0.313 0.286-0.52 0.431-0.776zM19.879 6.21c-0.095 0.45-0.443 0.647-0.517 1.12-0.175-0.082-0.341-0.176-0.517-0.259 0.158-0.445 0.487-0.721 0.603-1.206 0.253 0.005 0.32 0.196 0.431 0.345zM19.535 4.4c0.044 0.044-0.063 0.109-0.087 0.086-0.044-0.045 0.063-0.11 0.087-0.086zM18.069 5.779c0.185-0.159 0.228-0.463 0.431-0.603-0.025-0.139 0.082-0.148 0.087-0.259 0.175 0.026 0.168 0.234 0.343 0.259-0.058 0.314-0.326 0.421-0.431 0.69-0.193 0.18-0.21 0.537-0.517 0.604-0.285-0.212-0.020-0.419 0.087-0.69zM18.758 8.106c-0.038 0.194-0.425 0.035-0.604 0.086 0.031-0.113 0.152-0.135 0.172-0.258 0.266-0.065 0.166 0.237 0.431 0.172zM15.655 4.4h2.327c-0.109 0.58-0.601 0.778-0.775 1.293-0.258-0.001-0.293-0.225-0.518-0.259 0.065-0.367 0.403-0.459 0.345-0.948-0.437-0.035-0.505 0.301-0.776 0.43-0.216 0.016-0.269-0.132-0.344-0.258-0.081-0.091-0.318-0.026-0.259-0.258zM17.552 8.192c-0.148 0.198-0.658 0.031-0.949 0.087 0.209-0.368 0.466-0.684 0.605-1.121 0.128 0.044 0.218 0.128 0.345 0.172-0.189 0.206-0.237 0.664 0 0.862zM16.172 7.33c-0.252-0.006-0.319-0.197-0.431-0.345 0.065-0.338 0.337-0.468 0.431-0.775 0.2 0.058 0.231 0.285 0.43 0.344-0.134 0.268-0.255 0.549-0.43 0.776zM15.741 8.279c-0.234 0.053-0.684-0.109-0.775 0.086-0.258-0.179 0.216-0.35 0.171-0.603 0.217 0.156 0.591 0.156 0.604 0.518zM14.967 5.176c0.276 0.068 0.376 0.312 0.602 0.431-0.071 0.387-0.445 0.474-0.517 0.863-0.283-0.034-0.379-0.253-0.603-0.345 0.044-0.446 0.452-0.526 0.518-0.949zM12.897 4.4v0.086c0.709-0.206 0.965 0.343 1.639 0.085 0.015 0.303-0.292 0.285-0.346 0.518-0.227 0.060-0.182 0.391-0.43 0.43-0.415-0.131-0.659-0.432-0.949-0.69-0.019-0.162 0.098-0.189 0.086-0.344-0.208-0.035-0.187 0.157-0.431 0.085-0.088-0.289 0.269-0.133 0.431-0.171zM14.363 7.159c-0.121 0.567-0.658 0.721-0.69 1.379-0.25-0.066-0.496-0.136-0.604-0.345 0.133-0.528 0.526-0.796 0.69-1.292 0.334-0.047 0.355 0.22 0.604 0.259zM12.294 5.607c0.045 0.045-0.063 0.111-0.087 0.087-0.043-0.045 0.063-0.11 0.087-0.087zM12.466 5.779c0.189 0.185 0.48 0.268 0.603 0.517-0.238 0.537-0.666 0.885-0.862 1.465-0.352-0.135-0.648-0.329-0.948-0.517 0.21-0.681 0.948-0.835 1.207-1.465zM11.604 9.314c-0.288 0.056-0.422 0.268-0.688 0.345-0.339-0.064-0.469-0.336-0.777-0.432 0.11-0.494 0.433-0.774 0.604-1.206 0.502 0.014 0.641 0.393 1.034 0.517-0.093 0.223-0.21 0.423-0.173 0.776zM9.708 8.106c-0.159 0.151-0.261 0.644-0.517 0.431 0.142-0.52 0.448-0.872 0.69-1.293 0.114 0.031 0.136 0.152 0.258 0.172-0.059 0.315-0.326 0.421-0.431 0.69zM10.398 6.555c0.044 0.045-0.062 0.109-0.087 0.086-0.045-0.044 0.063-0.11 0.087-0.086zM12.122 4.056c-0.233 0.254-0.478-0.209-0.69-0.259 0.204-0.226 0.449 0.236 0.69 0.259zM11.432 4.83c-0.255 0.522-0.727 0.825-0.949 1.38-0.175-0.026-0.168-0.234-0.344-0.259 0.189-0.615 0.557-1.052 0.862-1.551 0.227 0.059 0.182 0.392 0.431 0.43zM9.535 3.97v-1.295c0.409 0.224 0.894 0.37 1.293 0.605-0.177 0.080-0.239 0.277-0.346 0.43 0.047 0.304-0.305 0.212-0.258 0.517-0.28 0.236-0.448 0.587-0.603 0.949-0.199-0.232-0.031-0.832-0.087-1.206zM9.277 5.951c0.045-0.133 0.090-0.006 0.086 0.087-0.154 0.024-0.176-0.081-0.086-0.087zM9.105 6.555c0.397 0.156-0.203 0.377-0.171 0.69-0.251 0.123-0.196 0.553-0.518 0.604 0.059-0.602 0.454-0.869 0.69-1.294zM8.071 11.037c0.219-0.612 0.455-1.21 0.688-1.81h0.259c-0.166 0.504-0.509 1.164-0.259 1.81-0.214 0.218-0.446 0.416-0.517 0.776-0.222-0.096-0.17-0.463-0.172-0.776zM9.966 10.348c-0.238 0.021-0.196 0.32-0.344 0.431-0.035 0.208 0.156 0.187 0.086 0.43-0.739 0.803-0.959 3.002-0.345 4.138 0.104-0.009 0.053 0.125 0 0-0.513-0.435-0.729-1.166-0.949-1.897 0.128-0.821 0.53-1.367 0.69-2.155 0.2-0.058 0.231-0.285 0.431-0.345-0.061-0.319 0.147-0.369 0.087-0.689 0.1-0.052 0.125-0.607 0.344-0.259 0.38-0.012 0.024 0.245 0 0.346zM14.363 16.899c-0.87-0.109-1.734-0.221-2.587-0.345-0.321-0.282-0.633-0.574-0.861-0.949-0.128-0.174-0.244-0.372-0.338-0.581l-0.008-0.020c-0.152-0.136-0.113-0.463-0.258-0.605-0.007-0.84 0.078-1.588 0.172-2.327 0.125-0.507 0.54-0.724 0.776-1.122 0.366-0.267 0.622-0.643 1.035-0.861 0.197-0.063 0.44-0.077 0.603-0.173 0.154-0.105 0.502-0.015 0.603-0.171 2.1 0.117 3.589-0.376 5.689-0.259 0.443 0.069 0.566-0.183 0.949-0.172h1.896c0.139 0.023 0.149-0.083 0.258-0.087 0.263-0.063 0.255 0.149 0.519 0.087 0.218 0.010 0.334 0.124 0.344 0.345 0.113 0.087 0.317 0.084 0.431 0.171 0.258 0.778 0.576 1.494 0.776 2.329v1.378c-0.273 0.933-0.661 1.752-1.12 2.5-0.307 0.241-0.8 0.292-1.121 0.517-0.192 0.068-0.336 0.182-0.604 0.172-0.031 0.229-0.439 0.079-0.517 0.259-2.322 0.195-4.329-0.059-6.637-0.086zM21.431 14.226c0.692 0.059 0.786-0.479 1.034-0.862-0.013-1.078 0.175-2.359-0.862-2.414h-0.172c-0.363 0.355-0.768 0.673-0.949 1.209-0.013 0.472-0.009 0.928 0.087 1.292 0.324 0.222 0.325 0.767 0.862 0.776zM12.638 14.484c0.377 0.248 0.864 0.3 1.294 0.087 0.625-0.632 0.336-2.319-0.087-2.931-1.442-0.432-1.751 1.79-1.207 2.844zM17.552 14.571c0.015-0.1 0.136-0.093 0.259-0.087 0.173-0.203 0.228-0.577 0.087-0.861-0.324-0.31-0.931-0.137-0.95 0.345 0.051 0.352 0.253 0.551 0.604 0.603zM17.897 15.52c-0.285 0.003-0.43 0.145-0.776 0.085-0.564-0.038-0.596-0.61-1.206-0.602-0.048 0.123-0.135 0.21-0.259 0.257 0.136 0.899 0.933 1.135 1.896 1.208 0.202-0.028 0.323-0.136 0.603-0.087 0.42-0.278 1.403-0.691 0.862-1.378-0.598-0.054-0.735 0.354-1.12 0.517z"></path>
</symbol>
<symbol id="icon-arrow-right-min" viewBox="0 0 32 32">
<path stroke-linejoin="round" stroke-linecap="round" stroke-miterlimit="4" stroke-width="2.666" d="M6.666 16h18.668M16 25.334l9.334-9.334-9.334-9.334"></path>
</symbol>
<symbol id="icon-close-min" viewBox="0 0 32 32">
<path stroke-linejoin="miter" stroke-linecap="butt" stroke-miterlimit="4" stroke-width="2.1333" d="M8.533 8.533l14.933 14.933M8.533 23.467l14.933-14.933"></path>
</symbol>
<symbol id="icon-Vector-min" viewBox="0 0 34 32">
<path fill="#ff6b08" style="fill: var(--color1, #ff6b08)" d="M17.231 31.705l-2.412-2.412c-8.96-7.926-14.818-13.268-14.818-19.815 0-5.342 4.135-9.477 9.477-9.477 2.929 0 5.858 1.378 7.754 3.618 1.895-2.24 4.825-3.618 7.754-3.618 5.342 0 9.477 4.135 9.477 9.477 0 6.548-5.858 11.889-14.818 19.815l-2.412 2.412z"></path>
</symbol>
<symbol id="icon-arrow-left-min" viewBox="0 0 32 32">
<path stroke-linejoin="round" stroke-linecap="round" stroke-miterlimit="4" stroke-width="2.666" d="M25.334 16h-18.668M16 25.334l-9.334-9.334 9.334-9.334"></path>
</symbol>
<symbol id="icon-film-min" viewBox="0 0 32 32">
<path fill="none"  stroke-linejoin="round" stroke-linecap="round" stroke-miterlimit="4" stroke-width="2.6667" d="M26.427 2.667h-20.853c-1.605 0-2.907 1.301-2.907 2.907v0 20.853c0 1.605 1.301 2.907 2.907 2.907v0h20.853c1.605 0 2.907-1.301 2.907-2.907v0-20.853c0-1.605-1.301-2.907-2.907-2.907v0zM9.333 2.667v26.667M22.667 2.667v26.667M2.667 16h26.667M2.667 9.333h6.667M2.667 22.667h6.667M22.667 22.667h6.667M22.667 9.333h6.667"></path>
</symbol>
<symbol id="icon-search-2-min" viewBox="0 0 32 32">
<path fill="none" stroke="#fff" style="stroke: var(--color2, #fff)" stroke-linejoin="round" stroke-linecap="round" stroke-miterlimit="4" stroke-width="2.6667" d="M14.667 25.333c5.891 0 10.667-4.776 10.667-10.667s-4.776-10.667-10.667-10.667v0c-5.891 0-10.667 4.776-10.667 10.667s4.776 10.667 10.667 10.667v0zM28 28l-5.8-5.8"></path>
</symbol>
<symbol id="icon-close" viewBox="0 0 32 32">
<path stroke-linejoin="miter" stroke-linecap="butt" stroke-miterlimit="4" stroke-width="2.1333" d="M8.533 8.533l14.933 14.933"></path>
<path stroke-linejoin="miter" stroke-linecap="butt" stroke-miterlimit="4" stroke-width="2.1333" d="M8.533 23.467l14.933-14.933"></path>
</symbol>
<symbol id="icon-x" viewBox="0 0 32 32">
<path d="M32 3.223l-3.223-3.223-12.777 12.777-12.777-12.777-3.223 3.223 12.777 12.777-12.777 12.777 3.223 3.223 12.777-12.777 12.777 12.777 3.223-3.223-12.777-12.777 12.777-12.777z"></path>
</symbol>
<symbol id="icon-play" viewBox="0 0 32 32">
<path d="M16 0c-8.837 0-16 7.163-16 16s7.163 16 16 16 16-7.163 16-16-7.163-16-16-16zM16 29c-7.18 0-13-5.82-13-13s5.82-13 13-13 13 5.82 13 13-5.82 13-13 13zM12 9l12 7-12 7z"></path>
</symbol>
</defs>
</svg>
